<svg width="25" height="16" viewBox="0 0 25 16" fill="none" xmlns="http://www.w3.org/2000/svg">
<path d="M12.0832 0.000500216C5.408 0.000500216 0 3.5856 0 8.00407C0 11.5421 3.46184 14.541 8.25964 15.5989C8.86606 15.6745 9.08507 15.4269 9.08507 15.2128C9.08507 15.0227 9.07827 14.52 9.07374 13.8527C5.71083 14.3349 5.00245 12.7767 5.00245 12.7767C4.45191 11.8543 3.65744 11.6067 3.65744 11.6067C2.56391 11.112 3.74429 11.1225 3.74429 11.1225C4.95563 11.177 5.59302 11.9453 5.59302 11.9453C6.67069 13.1699 8.42049 12.8157 9.11301 12.6096C9.21874 12.0939 9.53366 11.7392 9.87652 11.5416C7.19405 11.3411 4.37337 10.6532 4.37337 7.58638C4.37337 6.71049 4.84159 5.99717 5.61568 5.43692C5.48201 5.23633 5.07269 4.42097 5.72216 3.31848C5.72216 3.31848 6.73337 3.10488 9.04505 4.13934C10.0125 3.96176 11.0395 3.87323 12.0659 3.86872C13.0929 3.87323 14.1192 3.96227 15.0867 4.13934C17.3847 3.10488 18.3952 3.31848 18.3952 3.31848C19.0439 4.42097 18.6346 5.23583 18.5168 5.43692C19.2833 5.99717 19.7515 6.71099 19.7515 7.58638C19.7515 10.6602 16.9271 11.3381 14.2416 11.5336C14.6615 11.7732 15.0549 12.266 15.0549 13.0138C15.0549 14.0843 15.0398 14.9467 15.0398 15.2073C15.0398 15.4154 15.2513 15.6655 15.8736 15.5849C20.7069 14.538 24.1649 11.5366 24.1649 8.00357C24.1649 3.5851 18.7569 0 12.0817 0L12.0832 0.000500216Z" fill="black"/>
</svg>
