<svg width="22" height="14" viewBox="0 0 22 14" fill="none" xmlns="http://www.w3.org/2000/svg">
<path d="M21.4986 0.949375C21.6497 0.4025 21.4986 0 20.7716 0H18.3661C17.7535 0 17.4717 0.345625 17.3206 0.730625C17.3206 0.730625 16.0954 3.92875 14.3637 6.0025C13.8042 6.60187 13.5469 6.79438 13.2406 6.79438C13.0895 6.79438 12.8567 6.60187 12.8567 6.055V0.949375C12.8567 0.293125 12.6852 0 12.1787 0H8.39687C8.01297 0 7.78426 0.30625 7.78426 0.590625C7.78426 1.21187 8.65009 1.35625 8.73994 3.10625V6.90375C8.73994 7.735 8.60108 7.88812 8.29477 7.88812C7.47795 7.88812 5.49309 4.67687 4.31687 1.00188C4.08 0.28875 3.84721 0 3.23051 0H0.824985C0.138859 0 0 0.345625 0 0.730625C0 1.41312 0.816816 4.80375 3.80228 9.28375C5.79123 12.3419 8.59291 14 11.1414 14C12.6729 14 12.8608 13.6325 12.8608 12.9981C12.8608 10.0756 12.7219 9.8 13.4897 9.8C13.845 9.8 14.4577 9.9925 15.8871 11.4669C17.5207 13.2169 17.7903 14 18.7051 14H21.1106C21.7967 14 22.1439 13.6325 21.9438 12.9062C21.4864 11.3794 18.3947 8.23812 18.2558 8.02812C17.9005 7.53812 18.0026 7.31938 18.2558 6.88188C18.2599 6.8775 21.1964 2.45 21.4986 0.949375Z" fill="black"/>
</svg>
